<?xml version="1.0" standalone="no"?><!DOCTYPE svg PUBLIC "-//W3C//DTD SVG 1.1//EN" "http://www.w3.org/Graphics/SVG/1.1/DTD/svg11.dtd"><svg t="1649642639871" class="icon" viewBox="0 0 1024 1024" version="1.1" xmlns="http://www.w3.org/2000/svg" p-id="2249" xmlns:xlink="http://www.w3.org/1999/xlink" width="200" height="200"><defs><style type="text/css">@font-face { font-family: feedback-iconfont; src: url("//at.alicdn.com/t/font_1031158_u69w8yhxdu.woff2?t=1630033759944") format("woff2"), url("//at.alicdn.com/t/font_1031158_u69w8yhxdu.woff?t=1630033759944") format("woff"), url("//at.alicdn.com/t/font_1031158_u69w8yhxdu.ttf?t=1630033759944") format("truetype"); }
</style></defs><path d="M923.86 338c-22.52-53.23-54.74-101.03-95.78-142.07-41.04-41.04-88.84-73.27-142.08-95.78C630.87 76.82 572.33 65 512 65s-118.87 11.82-174 35.14c-53.23 22.52-101.03 54.74-142.07 95.78-41.04 41.04-73.27 88.84-95.78 142.07C76.82 393.13 65 451.67 65 512c0 60.33 11.82 118.87 35.14 174 22.52 53.23 54.74 101.03 95.78 142.08 41.04 41.04 88.84 73.27 142.07 95.78C393.13 947.18 451.67 959 512 959c60.33 0 118.87-11.82 174-35.14 53.23-22.52 101.03-54.74 142.08-95.78 41.04-41.04 73.27-88.84 95.78-142.08C947.18 630.87 959 572.33 959 512s-11.82-118.87-35.14-174zM512 895c-211.19 0-383-171.81-383-383s171.81-383 383-383 383 171.81 383 383-171.81 383-383 383z" p-id="2250" fill="#bfbfbf"></path><path d="M680 480H544V344c0-17.67-14.33-32-32-32s-32 14.33-32 32v136H344c-17.67 0-32 14.33-32 32s14.33 32 32 32h136v136c0 17.67 14.33 32 32 32s32-14.33 32-32V544h136c17.67 0 32-14.33 32-32s-14.33-32-32-32z" p-id="2251" fill="#bfbfbf"></path></svg>