<?xml version="1.0" standalone="no"?><!DOCTYPE svg PUBLIC "-//W3C//DTD SVG 1.1//EN" "http://www.w3.org/Graphics/SVG/1.1/DTD/svg11.dtd"><svg t="1649580423187" class="icon" viewBox="0 0 1024 1024" version="1.1" xmlns="http://www.w3.org/2000/svg" p-id="2242" xmlns:xlink="http://www.w3.org/1999/xlink" width="200" height="200"><defs><style type="text/css">@font-face { font-family: feedback-iconfont; src: url("//at.alicdn.com/t/font_1031158_u69w8yhxdu.woff2?t=1630033759944") format("woff2"), url("//at.alicdn.com/t/font_1031158_u69w8yhxdu.woff?t=1630033759944") format("woff"), url("//at.alicdn.com/t/font_1031158_u69w8yhxdu.ttf?t=1630033759944") format("truetype"); }
</style></defs><path d="M512 0C230.4 0 0 230.4 0 512s230.4 512 512 512 512-230.4 512-512S793.6 0 512 0zM512 972.8C256 972.8 51.2 768 51.2 512S256 51.2 512 51.2 972.8 256 972.8 512 768 972.8 512 972.8z" p-id="2243"></path><path d="M774.4 486.4 537.6 486.4 537.6 249.6c0-12.8-12.8-25.6-25.6-25.6S486.4 236.8 486.4 249.6l0 236.8L249.6 486.4C236.8 486.4 224 499.2 224 512c0 12.8 12.8 25.6 25.6 25.6l236.8 0 0 236.8c0 12.8 12.8 25.6 25.6 25.6s25.6-12.8 25.6-25.6L537.6 537.6l236.8 0c12.8 0 25.6-12.8 25.6-25.6C800 499.2 787.2 486.4 774.4 486.4z" p-id="2244"></path></svg>