<?xml version="1.0" standalone="no"?><!DOCTYPE svg PUBLIC "-//W3C//DTD SVG 1.1//EN" "http://www.w3.org/Graphics/SVG/1.1/DTD/svg11.dtd"><svg class="icon" width="200px" height="200.00px" viewBox="0 0 1024 1024" version="1.1" xmlns="http://www.w3.org/2000/svg"><path fill="#333333" d="M784.888106 948.31422v-51.13459s2.835172-9.234044-9.944529-26.26763c-12.781956-17.042608-233.60733-233.609586-233.60733-233.609586V307.833797l41.181039 41.18104 193.488635-193.493145s9.146079-10.991084 9.146079-23.064811v-60.357357s70.031225 19.884546 67.899771 91.593868c-2.126943 71.709322-27.690855 78.814167-27.690855 78.814167l-268.405286 268.409798 290.067172 290.078449s19.525921 50.760176 1.064599 94.792176c-18.456811 44.038767-63.199295 52.526238-63.199295 52.526238zM239.11415 950.441163v-51.130079s-2.835172-9.234044 9.930995-26.26763c12.793233-17.040352 233.611841-233.614097 233.611842-233.614097V309.962996l-41.185551 41.196828-193.493145-193.504423s-9.146079-10.99785-9.14608-23.069322V74.226467s-70.026714 19.884546-67.890748 91.593868c2.126943 71.709322 27.686344 78.814167 27.686343 78.814167l268.423331 268.409798L176.968176 803.12726s-19.505621 50.771454-1.064599 94.789921c18.468088 44.036511 63.210573 52.523982 63.210573 52.523982z"  /><path fill="#333333" d="M249.503013 75.683524h524.024106c-3.547912 83.086097-61.780581 88.763207-61.780582 88.763207H311.281339c0.002256-0.006767-56.087683-4.980159-61.778326-88.763207zM769.8123 951.89822H245.788194c3.545656-83.092863 61.762537-88.767718 61.762537-88.767718h400.478732c0.002256 0 56.089938 4.977903 61.782837 88.767718zM635.1157 818.717322c0 14.146537-11.469251 25.604511-25.609022 25.604511-14.144282 0-25.611278-11.455718-25.611277-25.604511s11.466996-25.6 25.611277-25.6c14.137515 0.002256 25.609022 11.453463 25.609022 25.6zM533.387841 818.717322c0 14.146537-11.448952 25.604511-25.588722 25.604511-14.146537 0-25.615789-11.455718-25.615789-25.604511s11.466996-25.6 25.615789-25.6c14.137515 0.002256 25.588722 11.453463 25.588722 25.6zM431.691559 818.717322c0 14.146537-11.48504 25.604511-25.618044 25.604511-14.133004 0-25.615789-11.455718-25.615788-25.604511s11.480529-25.6 25.615788-25.6c14.133004 0.002256 25.618044 11.453463 25.618044 25.6zM584.249515 767.515066c0 14.146537-11.455718 25.604511-25.602255 25.604511-14.148793 0-25.606767-11.455718-25.606767-25.604511s11.455718-25.602256 25.606767-25.602255c14.146537 0.002256 25.602256 11.455718 25.602255 25.602255zM482.5397 767.515066c0 14.146537-11.46474 25.604511-25.602255 25.604511-14.148793 0-25.618044-11.455718-25.618044-25.604511s11.466996-25.602256 25.618044-25.602255c14.133004 0.002256 25.602256 11.455718 25.602255 25.602255z"  /><path fill="#333333" d="M587.980123 275.519154c0 14.146537-11.46474 25.615789-25.613533 25.615789-14.133004 0-25.588722-11.466996-25.588722-25.615789 0-14.13526 11.451207-25.602256 25.588722-25.602255 14.148793 0.002256 25.613533 11.469251 25.613533 25.602255zM486.270308 275.519154c0 14.146537-11.466996 25.615789-25.606766 25.615789-14.144282 0-25.611278-11.466996-25.611278-25.615789 0-14.13526 11.462485-25.602256 25.611278-25.602255 14.139771 0.002256 25.606767 11.469251 25.606766 25.602255zM537.120705 224.316899c0 14.146537-11.455718 25.602256-25.604511 25.602255-14.148793 0-25.609022-11.453463-25.609022-25.602255s11.455718-25.602256 25.609022-25.602256c14.148793 0.002256 25.604511 11.453463 25.604511 25.602256z"  /></svg>