<?xml version="1.0" standalone="no"?><!DOCTYPE svg PUBLIC "-//W3C//DTD SVG 1.1//EN" "http://www.w3.org/Graphics/SVG/1.1/DTD/svg11.dtd"><svg t="1649231443841" class="icon" viewBox="0 0 1024 1024" version="1.1" xmlns="http://www.w3.org/2000/svg" p-id="4032" xmlns:xlink="http://www.w3.org/1999/xlink" width="200" height="200"><defs><style type="text/css">@font-face { font-family: feedback-iconfont; src: url("//at.alicdn.com/t/font_1031158_u69w8yhxdu.woff2?t=1630033759944") format("woff2"), url("//at.alicdn.com/t/font_1031158_u69w8yhxdu.woff?t=1630033759944") format("woff"), url("//at.alicdn.com/t/font_1031158_u69w8yhxdu.ttf?t=1630033759944") format("truetype"); }
</style></defs><path d="M512 102.4c-225.28 0-409.6 184.32-409.6 409.6s184.32 409.6 409.6 409.6 409.6-184.32 409.6-409.6-184.32-409.6-409.6-409.6z m184.32 542.72c15.36 15.36 15.36 35.84 0 51.2s-35.84 15.36-51.2 0l-133.12-133.12-133.12 133.12c-15.36 15.36-35.84 15.36-51.2 0s-15.36-35.84 0-51.2l133.12-133.12-133.12-133.12c-15.36-15.36-15.36-35.84 0-51.2s35.84-15.36 51.2 0l133.12 133.12 133.12-133.12c15.36-15.36 35.84-15.36 51.2 0s15.36 35.84 0 51.2l-133.12 133.12 133.12 133.12z" p-id="4033" fill="#d81e06"></path></svg>