<?xml version="1.0" standalone="no"?><!DOCTYPE svg PUBLIC "-//W3C//DTD SVG 1.1//EN" "http://www.w3.org/Graphics/SVG/1.1/DTD/svg11.dtd"><svg t="1649043020398" class="icon" viewBox="0 0 1024 1024" version="1.1" xmlns="http://www.w3.org/2000/svg" p-id="3619" xmlns:xlink="http://www.w3.org/1999/xlink" width="200" height="200"><defs><style type="text/css">@font-face { font-family: feedback-iconfont; src: url("//at.alicdn.com/t/font_1031158_u69w8yhxdu.woff2?t=1630033759944") format("woff2"), url("//at.alicdn.com/t/font_1031158_u69w8yhxdu.woff?t=1630033759944") format("woff"), url("//at.alicdn.com/t/font_1031158_u69w8yhxdu.ttf?t=1630033759944") format("truetype"); }
</style></defs><path d="M802.3 322.1l-34.5-206.8c-1.4-8.3-8.6-14.4-17-14.4H268.2c-8.4 0-15.6 6.1-17 14.4l-34.5 206.8c-0.8 5 0.6 10.1 3.8 14 3.3 3.9 8.1 6.1 13.2 6.1h551.6c5 0 9.9-2.2 13.1-6.1 3.3-3.9 4.7-9 3.9-14z" fill="#1386FA" p-id="3620" data-spm-anchor-id="a313x.7781069.0.i2" class="selected"></path><path d="M798.3 382.6c-3.3-3.7-8-5.9-13-5.9H233.7c-5 0-9.7 2.1-13 5.9-3.3 3.7-4.8 8.7-4.1 13.6l69 517.1c1.1 8.6 8.4 15 17.1 15h413.7c8.6 0 15.9-6.4 17.1-15l68.9-517.1c0.6-4.9-0.9-9.9-4.1-13.6z" fill="#FEBF55" p-id="3621"></path><path d="M837 307.8H182c-9.5 0-17.2 7.7-17.2 17.2v69c0 9.5 7.7 17.2 17.2 17.2h655c9.5 0 17.2-7.7 17.2-17.2v-69c0-9.5-7.7-17.2-17.2-17.2z" fill="#5BC1FB" p-id="3622" data-spm-anchor-id="a313x.7781069.0.i1" class="selected"></path><path d="M354.3 100.9h310.3v103.4H354.3z" fill="#FEBF55" p-id="3623"></path><path d="M337.1 238.8h344.7c9.5 0 17.2-7.7 17.2-17.2V100.9h-34.5v103.4H354.3V100.9h-34.5v120.6c0.1 9.6 7.8 17.3 17.3 17.3z" fill="#5bc1fb" p-id="3624"></path><path d="M587.4 717.2l2.4 15.4c10.2 4 10 0.6 20.1-0.8-27.7 45.9-86.3 67.9-139 48.3-20.6-7.7-28.6-16.5-42.5-25.8-7.4 3.8-13.6 8.9-17 16.7 57.8 55.4 143.7 53.9 199.5-0.3 9.6-9.3 13.9-17.6 22.1-26.7l5 17 17.4-2.8c-0.4-9.7-2.8-15.3-5-24.4-2.9-11.6-1.5-16.2-11.7-20.6-18.7-8-33.7 0-51.3 4zM514.7 580.1l11.7-11.4c-4.8-7.3-5.6-5.1-9.6-13.8 54.7 0.6 96.3 42 107.5 87 6.4 25.6 0.8 36.3 0.9 60.1l23 5.9c8.3-55.6-0.5-93.2-27.6-126.7-22.2-27.5-57.9-50.3-106.3-52 4.7-7.1 7-7.4 11.2-14.9-4.2-7.2-4.7-6.7-10.2-12.2-7.7 3.6-32.2 22.8-30.5 38.9 1.8 18 19 34 29.9 39.1zM386.4 738.6l-19-2.8-3.8 15.2c10.8 7.7 37.7 15.5 47.7 7.9 12-9.2 21.9-31.6 18.6-46.7l-13.9-4.5c-0.4 0.7-0.9 1-1.1 2l-2.7 5.6c-2.2 4.9-0.8 3.7-3.7 8.5-26.2-27.1-25.5-136.3 71.2-166l-3.9-23.9c-81.8 19.4-133.6 111.8-89.4 204.7z" fill="#FFFFFF" p-id="3625"></path></svg>