<?xml version="1.0" standalone="no"?><!DOCTYPE svg PUBLIC "-//W3C//DTD SVG 1.1//EN" "http://www.w3.org/Graphics/SVG/1.1/DTD/svg11.dtd"><svg t="1649074489716" class="icon" viewBox="0 0 1046 1024" version="1.1" xmlns="http://www.w3.org/2000/svg" p-id="783" xmlns:xlink="http://www.w3.org/1999/xlink" width="204.296875" height="200"><defs><style type="text/css">@font-face { font-family: feedback-iconfont; src: url("//at.alicdn.com/t/font_1031158_u69w8yhxdu.woff2?t=1630033759944") format("woff2"), url("//at.alicdn.com/t/font_1031158_u69w8yhxdu.woff?t=1630033759944") format("woff"), url("//at.alicdn.com/t/font_1031158_u69w8yhxdu.ttf?t=1630033759944") format("truetype"); }
</style></defs><path d="M295.962 512.782L186.48 702.33h0.025l56.617 0.01h211.494-0.019v236.295l-193.356-0.032a2.698 2.698 0 0 1-0.708 0.032H249.28c-0.113 0-0.178-0.01-0.28 0-38.768-1.973-75.754-22.972-96.627-59.063l-28.137-48.727-6.006-10.395L15.843 643.24C5.861 625.851 0.033 605.696 0.033 584.176c0-21.533 5.828-41.707 15.81-59.077l75.374-130.492-73.7-42.538 98.266 0.013 204.735 118.15 49.14 85.085-73.696-42.535z m344.296 189.57l218.936-0.02-28.26-49.01-11.763-20.38-93.992-162.668L929.93 352.12l96.669 167.395c0.083 0.167 0.26 0.364 0.344 0.586l5.616 9.75c0.103 0.087 0.126 0.149 0.168 0.223 17.662 34.542 17.997 77.083-2.866 113.187l-0.683 1.182c0.235-0.393 0.467-0.786 0.696-1.182l-33.876 58.616-0.56 0.97L893.352 879.59a117.857 117.857 0 0 1-43.282 43.24 117.631 117.631 0 0 1-59.086 15.833v-0.01H640.258v85.096L522.916 820.51l68.225-118.153v236.296h49.117z m-7.854-392.801L522.91 120.072l-28.328 49.01-11.763 20.361-93.97 162.668-204.751-118.153 96.73-167.35c0.083-0.209 0.18-0.431 0.305-0.628l5.635-9.73c0.023-0.094 0.084-0.146 0.13-0.252 21.088-32.555 57.79-54.111 99.491-54.088h2.325a121.06 121.06 0 0 0-2.312-0.023H659.37a117.824 117.824 0 0 1 59.125 15.833 117.686 117.686 0 0 1 43.262 43.243l75.367 130.467 73.731-42.541L793.45 352.101h-234.79l73.751-42.55z" fill="#1296DB" p-id="784"></path></svg>