<?xml version="1.0" standalone="no"?><!DOCTYPE svg PUBLIC "-//W3C//DTD SVG 1.1//EN" "http://www.w3.org/Graphics/SVG/1.1/DTD/svg11.dtd"><svg class="icon" width="200px" height="200.00px" viewBox="0 0 1024 1024" version="1.1" xmlns="http://www.w3.org/2000/svg"><path fill="#333333" d="M512 1024C229.239467 1024 0 794.760533 0 512 0 229.239467 229.239467 0 512 0c282.760533 0 512 229.239467 512 512 0 282.760533-229.239467 512-512 512z m19.899733-767.249067c65.399467 107.3152 124.3136 216.234667 189.713067 323.515734 24.405333-8.362667 47.752533-18.909867 63.453867-44.987734-58.368-108.407467-130.3552-221.2864-193.672534-329.659733-30.1056-32.8704-105.3696-48.4352-147.6608-20.445867 2.798933-2.048 55.671467 20.718933 64.648534 63.146667-0.4096-0.853333 13.585067-4.5056 23.517866 8.430933zM291.1232 566.613333c61.474133-98.747733 125.269333-193.570133 186.743467-292.317866-16.827733-17.237333-35.0208-32.6656-62.839467-35.362134-65.297067 93.252267-128.682667 199.816533-191.965867 297.301334-23.005867 34.133333-27.511467 81.92 5.461334 112.298666-4.983467-7.031467 18.363733-40.004267 57.378133-50.688-0.580267 0.682667-1.365333-17.578667 5.2224-31.232zM546.133333 611.396267V819.2l135.168-85.879467-51.473066-2.6624 0.2048-49.493333 92.0576 0.068267c72.0896-15.36 105.130667-60.928 95.470933-135.099734-20.411733 27.7504-44.032 40.0384-79.223467 36.864-1.297067 11.946667-13.892267 24.234667-29.661866 28.398934H546.133333z m-68.266666 3.413333H315.630933c-50.7904-4.369067-74.274133 29.0816-76.6976 43.895467 7.850667 25.429333 31.880533 36.010667 63.351467 36.2496l91.8528-0.034134 0.2048 56.797867-51.370667 3.037867L477.866667 853.333333v-238.557866z" /></svg>