<?xml version="1.0" standalone="no"?><!DOCTYPE svg PUBLIC "-//W3C//DTD SVG 1.1//EN" "http://www.w3.org/Graphics/SVG/1.1/DTD/svg11.dtd"><svg class="icon" width="200px" height="200.00px" viewBox="0 0 1024 1024" version="1.1" xmlns="http://www.w3.org/2000/svg"><path fill="#333333" d="M676.322 817.89v101.63h78.119l-187.983 101.556V708.525h201.889c25.304 0 46.475-11.826 60.098-29.302 1.242 16.827-0.173 33.92-4.674 50.7-9.803 36.607-32.473 67.471-64.008 87.967h-83.441z m-219.23-109.288h0.703v312.474L269.82 919.52h78.12V817.89h-92.79c-67.15 0-127.293-34.716-160.867-92.882-25.655-44.427-31.638-95.421-18.102-142.955 23.328 69.07 86.68 119.83 162.364 124.536 5.325 1.156 10.824 1.936 16.605 1.936h201.943v0.077z m472.132-169.349c33.577 58.15 33.577 127.599 0 185.755-25.757 44.62-67.173 75.372-115.372 87.297a182.365 182.365 0 0 0 40.103-74.296c11.697-43.631 7.04-89.04-12.95-129.114-1.64-5.056-3.672-10.08-6.5-14.959L577.912 149.488c-5.515-9.543-12.577-17.302-20.609-23.273-10.522-7.816-22.701-12.512-35.24-14.185 44.325-30.636 103.187-36.479 153.918-11.418l253.24 438.641zM184.32 660.618c-48.558-23.36-82.787-71.648-86.077-128.231L350.879 94.808c33.586-58.16 93.72-92.876 160.877-92.876 50.918 0 97.774 19.99 132.106 54.995-71.244-13.842-146.442 15.742-188.102 78.767a78.065 78.065 0 0 0-10.17 13.797L188.998 593.936c-7.351 12.734-10.57 26.255-10.336 39.387a75.962 75.962 0 0 0 2.844 19.247c0.77 2.742 1.75 5.416 2.818 8.048z"  /></svg>