<?xml version="1.0" standalone="no"?><!DOCTYPE svg PUBLIC "-//W3C//DTD SVG 1.1//EN" "http://www.w3.org/Graphics/SVG/1.1/DTD/svg11.dtd"><svg class="icon" width="200px" height="200.00px" viewBox="0 0 1024 1024" version="1.1" xmlns="http://www.w3.org/2000/svg"><path fill="#333333" d="M241.9 608.7s-12-1.4 24-57.2c36.1-55.8 196.9-310.3 196.9-310.3s16.5-25.7 28.6-30c0 0-39.1-52.9-85.7-52.9l-260 393.2s-33.1 68.6 7.5 125.8c0 0.1 10.5-38.5 88.7-68.6zM251.2 634.5s-3.2 15 92.1 13.5c93.7-1.5 131.4-1.5 131.4-1.5l-2.4 268.8-160.6-113.1h56.6v-59.9l-84.2-0.7s-65.3 1.5-107.8-38.9c0.1-0.1 17.4-36.8 74.9-68.2zM558 647.2v268.1l164.4-111.6h-60.6V740h110.9s148.7-33.7 112.5-167.7c0 0-58.2 75.6-144 74.9-85.6-0.8-183.2 0-183.2 0z"  /><path fill="#333333" d="M782.3 591.8s66.9-0.7 85.8-58.4L644.6 183s-78.7-113.8-210.1-48.7c0 0 70.5 25 104.6 78.6 72.4 113.8 243.2 378.9 243.2 378.9z"  /></svg>