<?xml version="1.0" standalone="no"?><!DOCTYPE svg PUBLIC "-//W3C//DTD SVG 1.1//EN" "http://www.w3.org/Graphics/SVG/1.1/DTD/svg11.dtd"><svg t="1649847454461" class="icon" viewBox="0 0 1024 1024" version="1.1" xmlns="http://www.w3.org/2000/svg" p-id="3336" xmlns:xlink="http://www.w3.org/1999/xlink" width="200" height="200"><defs><style type="text/css">@font-face { font-family: feedback-iconfont; src: url("//at.alicdn.com/t/font_1031158_u69w8yhxdu.woff2?t=1630033759944") format("woff2"), url("//at.alicdn.com/t/font_1031158_u69w8yhxdu.woff?t=1630033759944") format("woff"), url("//at.alicdn.com/t/font_1031158_u69w8yhxdu.ttf?t=1630033759944") format("truetype"); }
</style></defs><path d="M572.702246 1022.419408c1.906745 1.40497 58.933489-55.747217 63.599997-64.177038-0.501775-0.60213-1.329704-2.283077-1.60568-1.756213l-153.618455-154.446385c-10.035503-9.834792-45.862247-44.055856-49.449939-55.195264l152.564727-154.095141c13.196686-12.845443 43.704614-40.443075 51.983904-54.191714-4.84213-8.705798-57.955027-59.560708-65.832897-62.922601-8.48-0.150533-198.978927 198.878572-205.17585 200.283542-13.397396 3.060828-82.592186-73.535145-98.674079-88.312422-25.791242-23.733964-16.959999-27.396922-16.583667-95.688517 0.20071-37.231714-0.677396-33.041892-16.884734-57.403075-47.166862-70.850648-39.088282-46.389111-44.281655-104.193605-1.982012-22.002839-4.390532-47.392661-4.064378-71.929465 37.156448 2.257988 64.227216 20.748402 96.917866 31.009703 112.196919 35.249703 238.343186 34.09562 346.224838 5.143195 90.319523-24.235739 190.172773-78.87905 250.009457-141.676207 10.988875-11.540828 52.686388-54.492779 60.213015-71.302246-19.268165-23.884496-112.146741-57.50343-141.575852-64.578458C675.817035-12.040195 492.066983-5.768005 374.751958 50.60643c-27.597632 13.221775-68.943903 34.120709-90.043546 50.001892-24.687336 18.540591-66.535382 61.141299-77.373725 60.463902-33.819644-2.207811-34.572306-68.718104-65.908163-72.20544-18.916922 14.551479-11.917159 74.287808-11.917159 98.398102v115.031948c0 90.319523-5.946035 68.090885 29.880709 137.411119 10.68781 20.673135 13.096331 18.440236 12.820354 47.066507-16.684023-2.809941-6.799053-5.770414-21.475975-10.913609-8.404733 4.415621-59.008755 52.159525-64.453016 62.721891 5.795503 11.315029 29.604733 32.464851 38.912662 41.070294 10.763076 10.035503 33.217513 31.386034 40.367809 42.851596-1.931834 13.92426-35.124259 83.972068-43.503904 101.810173-32.615383 69.546033-30.608283 56.248992-31.4613 116.361652l10.436922-10.035502c15.053254-18.390058 43.528992-70.59976 66.033607-71.553134 10.411834 23.80923 8.003313 58.10556 17.863195 83.746269 18.038816-10.863432 36.955738-28.601182 36.930649-52.310057 0-24.285916-4.064379-72.381062 3.336804-90.670765 18.239526-6.924497 27.045679 7.677159 36.32852 16.985088 9.68426 9.734437 24.41136 19.544141 29.102957 33.041892-8.530177 13.196686-37.984377 39.063194-51.005442 51.532305-8.103668 7.752426-13.32213 15.203786-24.035028 25.665798L85.854929 958.167103c4.490887 8.956686 55.195264 58.958577 64.879524 65.757631 27.823431-12.092781 190.473838-199.505791 210.043068-201.161649 5.770414 25.715975-5.293728 37.056093 8.605443 59.686152 7.526627 12.293491 16.684023 31.937987 26.945325 40.894672l13.021064-8.505088-4.490887-49.299406c18.9671 4.490887 154.847804 147.245911 167.84378 156.879993z" fill="#EA3E30" p-id="3337"></path></svg>