<?xml version="1.0" standalone="no"?><!DOCTYPE svg PUBLIC "-//W3C//DTD SVG 1.1//EN" "http://www.w3.org/Graphics/SVG/1.1/DTD/svg11.dtd"><svg class="icon" width="200px" height="200.00px" viewBox="0 0 1024 1024" version="1.1" xmlns="http://www.w3.org/2000/svg"><path fill="#333333" d="M495.0016 495.0016h-153.6c26.7264-15.9744 45.6704-26.4192 51.9168-61.44C307.9168 386.9696 256 286.1056 183.296 223.9488c-30.72-26.112-78.0288-56.5248-94.8224-94.8224 23.1424-15.7696 27.3408-33.8944 61.44-40.96 54.8864 84.992 152.3712 152.7808 223.1296 223.9488 26.624 26.624 42.1888 67.4816 88.064 74.5472a108.2368 108.2368 0 0 1 33.8944-33.8944zM549.2736 495.0016V344.2688c21.1968 25.2928 22.3232 38.6048 61.44 42.3936 53.4528-81.92 147.968-147.968 216.8832-216.8832 27.9552-28.0576 49.0496-71.68 94.8224-81.3056 13.1072 20.48 28.8768 31.5392 40.96 54.1696-55.0912 19.2512-182.9888 176.3328-230.4 223.6416-26.5216 26.5216-65.6384 44.2368-74.5472 88.064l33.8944 40.96zM495.0016 549.2736v142.2336h-6.7584l-33.8944-40.96c-74.9568 38.4-131.584 124.928-189.7472 182.9888-44.2368 44.3392-103.3216 83.0464-132.1984 139.5712l-3.7888-0.3072c-8.8064-51.2-28.0576-39.424-40.1408-71.68 84.5824-54.9888 152.576-152.576 223.6416-223.5392 27.9552-28.0576 71.68-49.0496 81.3056-94.9248a78.336 78.336 0 0 1-33.8944-33.792zM549.2736 549.2736h153.6c-29.184 18.1248-41.5744 22.3232-44.9536 61.44 62.3616 25.3952 178.0736 171.3152 230.4 223.6416 21.0944 21.0944 71.0656 51.9168 61.44 81.3056-10.24 23.552-30.72 30.208-43.4176 54.4768-7.9872-60.0064-176.2304-186.2656-234.3936-244.224-28.16-27.9552-36.4544-62.0544-88.1664-67.7888a106.8032 106.8032 0 0 1-33.792 33.8944z"  /></svg>